In the aftermath of a major earthquake, a young girl and the captain of a submarine are rescued. It transpires the earthquake is a minor precursor to far greater devastation with the scientific community predicting that Japan will sink without trace in less than a year. As further earthquakes, tsunamis, and volcanic eruptions devastate Japan, the scientists devise a last ditch plan to save what remains of Japan by blowing holes in the disintegrating tectonic plate - a suicidal mission that will require the deployment of massive explosives deep in the earth's crust and calls upon the bravery and skill of the submarine captain.

Format : MPEG-4
Format profile : Base Media / Version 2
Codec ID : mp42
File size : 2.03 GiB
Duration : 2h 14mn
Overall bit rate : 2 164 Kbps
Encoded date : UTC 2010-04-24 06:32:27
Tagged date : UTC 2010-04-24 12:39:56
Writing application : HandBrake 0.9.3 2008112300

Video
ID : 1
Format : AVC
Format/Info : Advanced Video Codec
Format profile : Main@L4.0
Format settings, CABAC : Yes
Format settings, ReFrames : 3 frames
Codec ID : avc1
Codec ID/Info : Advanced Video Coding
Duration : 2h 14mn
Bit rate mode : Variable
Bit rate : 2 000 Kbps
Width : 712 pixels
Height : 410 pixels
Display aspect ratio : 2.469
Frame rate mode : Variable
Frame rate : 25.000 fps
Minimum frame rate : 12.500 fps
Maximum frame rate : 25.000 fps
Resolution : 8 bits
Colorimetry : 4:2:0
Scan type : Progressive
Bits/(Pixel*Frame) : 0.274
Stream size : 1.88 GiB (92%)
Writing library : x264 core 65

Language : English
Encoded date : UTC 2010-04-24 06:32:27
Tagged date : UTC 2010-04-24 12:39:56
Color primaries : BT.601-6 525, BT.1358 525, BT.1700 NTSC, SMPTE 170M
Transfer characteristics : BT.709-5, BT.1361
Matrix coefficients : BT.601-6 525, BT.1358 525, BT.1700 NTSC, SMPTE 170M

Audio
ID : 2
Format : AAC
Format/Info : Advanced Audio Codec
Format version : Version 4
Format profile : LC
Format settings, SBR : No
Codec ID : 40
Duration : 2h 14mn
Bit rate mode : Variable
Bit rate : 160 Kbps
Maximum bit rate : 236 Kbps
Channel(s) : 2 channels
Channel positions : L R
Sampling rate : 48.0 KHz
Stream size : 154 MiB (7%)
Language : Japanese
Encoded date : UTC 2010-04-24 06:32:27
Tagged date : UTC 2010-04-24 12:39:53